<svg version="1.1" xmlns="http://www.w3.org/2000/svg" viewBox="-264.1919967651367 -1108.9920532226563 8428.54453125 4153.088250732421"><desc>Created with Snap</desc><defs></defs><g><g transform="matrix(27.965,0,0,27.965,2538.4503,225.5295)"><g><path fill="#bbe5e8" d="M50.479,58.526C28.875,100.23,72.083,100.23,50.479,58.526L50.479,58.526z" style=""></path><path fill="#bbe5e8" d="M41.758,49.805C0.052,28.201,0.052,71.409,41.758,49.805L41.758,49.805z" style=""></path><path fill="#bbe5e8" d="M59.199,49.805C100.905,71.409,100.905,28.201,59.199,49.805L59.199,49.805z" style=""></path><path fill="#bbe5e8" d="M50.479,41.084C72.083-0.622,28.875-0.622,50.479,41.084L50.479,41.084z" style=""></path><path fill="#bbe5e8" d="M56.534,48.368c5.733-8.565,13.839-18.456,25.061-29.677C70.373,29.912,60.481,38.017,51.917,43.75   c-0.51-0.907-0.986-1.795-1.438-2.666c-0.45,0.871-0.928,1.759-1.437,2.666c-8.566-5.733-18.457-13.838-29.678-25.059   c11.221,11.221,19.327,21.112,25.06,29.677c-0.907,0.509-1.794,0.986-2.665,1.437c0.871,0.451,1.759,0.929,2.666,1.437   c-5.733,8.565-13.838,18.457-25.06,29.679C30.585,69.699,40.476,61.594,49.042,55.86c0.509,0.907,0.986,1.795,1.437,2.666   c0.452-0.871,0.929-1.759,1.438-2.666c8.564,5.733,18.456,13.839,29.678,25.061C70.373,69.699,62.268,59.808,56.534,51.242   c0.907-0.508,1.795-0.986,2.665-1.437C58.329,49.354,57.441,48.877,56.534,48.368z" style=""></path></g><desc>Created with Snap</desc><defs></defs></g><g><g transform="matrix(1.024,0,0,-1.024,0,0)"><path d="M541 708Q537 673 535 640Q534 607 534 590Q534 572 535 555Q536 539 537 528L514 528Q508 587 497 621Q486 656 459 670Q433 685 380 685L297 685Q263 685 245 679Q228 674 222 656Q216 639 216 602L216 106Q216 70 222 52Q228 34 245 28Q263 23 297 23L370 23Q433 23 465 40Q498 57 512 95Q527 134 534 200L557 200Q554 173 554 128Q554 109 555 73Q557 38 561 0Q510 2 446 2Q382 3 332 3Q302 3 252 3Q203 3 147 2Q91 2 42 0L42 20Q76 22 93 28Q111 34 117 52Q123 70 123 106L123 602Q123 639 117 656Q111 674 93 680Q76 687 42 688L42 708Q91 707 147 706Q203 705 252 705Q302 705 332 705Q378 705 436 705Q495 706 541 708ZM186 366L369 366Q369 366 369 356Q369 346 369 346L186 346Q186 346 186 356Q186 366 186 366ZM375 498L398 498Q394 441 394 411Q395 381 395 356Q395 331 396 301Q397 271 401 214L378 214Q374 246 368 276Q363 307 344 326Q326 346 282 346L282 366Q326 366 343 389Q361 412 366 443Q371 474 375 498ZM974 529Q1012 529 1037 519Q1063 509 1080 491Q1099 471 1107 441Q1115 411 1115 360L1115 93Q1115 51 1132 36Q1150 21 1191 21L1191 0Q1174 1 1139 2Q1104 4 1071 4Q1038 4 1006 2Q975 1 959 0L959 21Q995 21 1010 36Q1025 51 1025 93L1025 382Q1025 413 1020 439Q1015 465 997 481Q980 497 944 497Q881 497 842 444Q804 392 804 315L804 93Q804 51 819 36Q834 21 870 21L870 0Q854 1 822 2Q791 4 758 4Q725 4 690 2Q655 1 638 0L638 21Q679 21 696 36Q714 51 714 93L714 406Q714 451 698 472Q682 494 638 494L638 515Q670 512 700 512Q729 512 755 515Q782 519 804 526L804 408Q830 476 876 502Q923 529 974 529ZM1480 529Q1544 529 1595 501Q1646 473 1676 413Q1707 353 1707 257Q1707 161 1676 101Q1646 42 1595 14Q1544 -14 1480 -14Q1417 -14 1365 14Q1314 42 1283 101Q1253 161 1253 257Q1253 353 1283 413Q1314 473 1365 501Q1417 529 1480 529ZM1480 509Q1423 509 1386 450Q1350 391 1350 257Q1350 123 1386 64Q1423 6 1480 6Q1537 6 1573 64Q1610 123 1610 257Q1610 391 1573 450Q1537 509 1480 509ZM2237 526L2237 108Q2237 63 2253 41Q2270 20 2313 20L2313 -1Q2282 2 2251 2Q2222 2 2195 -1Q2169 -4 2147 -12L2147 106Q2122 41 2076 13Q2031 -14 1983 -14Q1948 -14 1922 -4Q1896 6 1879 24Q1860 44 1853 76Q1846 108 1846 155L1846 406Q1846 451 1830 472Q1814 494 1770 494L1770 515Q1802 512 1832 512Q1861 512 1887 515Q1914 519 1936 526L1936 133Q1936 102 1940 76Q1944 50 1960 34Q1976 18 2012 18Q2071 18 2109 70Q2147 123 2147 199L2147 406Q2147 451 2131 472Q2115 494 2071 494L2071 515Q2103 512 2133 512Q2162 512 2188 515Q2215 519 2237 526ZM2548 -188Q2495 -188 2448 -177Q2401 -166 2372 -143Q2344 -119 2344 -83Q2344 -48 2372 -23Q2400 2 2448 15L2454 -1Q2432 -8 2419 -29Q2406 -50 2406 -76Q2406 -122 2448 -147Q2491 -171 2559 -171Q2604 -171 2647 -160Q2690 -148 2718 -121Q2746 -94 2746 -50Q2746 -17 2722 4Q2699 26 2630 26L2556 26Q2524 26 2494 31Q2464 36 2445 52Q2426 68 2426 101Q2426 135 2454 166Q2482 198 2557 231L2569 222Q2535 204 2510 185Q2485 167 2485 142Q2485 110 2533 110L2658 110Q2720 110 2767 82Q2815 55 2815 -8Q2815 -55 2785 -96Q2755 -137 2695 -163Q2636 -188 2548 -188ZM2553 213Q2479 213 2428 251Q2378 289 2378 371Q2378 454 2428 491Q2479 529 2553 529Q2627 529 2677 491Q2728 454 2728 371Q2728 289 2677 251Q2627 213 2553 213ZM2553 231Q2591 231 2612 261Q2634 291 2634 371Q2634 451 2612 481Q2591 511 2553 511Q2516 511 2494 481Q2472 451 2472 371Q2472 291 2494 261Q2516 231 2553 231ZM2697 446L2679 453Q2693 487 2727 513Q2761 539 2798 539Q2824 539 2840 524Q2856 510 2856 481Q2856 450 2839 437Q2823 425 2806 425Q2791 425 2778 435Q2765 446 2763 469Q2761 492 2777 528L2790 525Q2748 509 2730 491Q2712 474 2697 446ZM3049 783L3049 409Q3075 477 3121 503Q3168 529 3219 529Q3257 529 3282 519Q3308 509 3325 491Q3344 471 3352 441Q3360 411 3360 360L3360 93Q3360 51 3377 36Q3395 21 3436 21L3436 0Q3419 1 3384 2Q3349 4 3316 4Q3283 4 3251 2Q3220 1 3204 0L3204 21Q3240 21 3255 36Q3270 51 3270 93L3270 382Q3270 413 3265 439Q3260 465 3242 481Q3225 497 3189 497Q3128 497 3088 446Q3049 396 3049 316L3049 93Q3049 51 3064 36Q3079 21 3115 21L3115 0Q3099 1 3067 2Q3036 4 3003 4Q2970 4 2935 2Q2900 1 2883 0L2883 21Q2924 21 2941 36Q2959 51 2959 93L2959 663Q2959 708 2943 729Q2927 751 2883 751L2883 772Q2915 769 2945 769Q2974 769 3000 772Q3027 776 3049 783ZM3748 708L3748 688Q3714 687 3696 680Q3679 674 3673 656Q3667 639 3667 602L3667 106Q3667 70 3673 52Q3679 34 3696 28Q3714 22 3748 20L3748 0Q3725 2 3690 2Q3656 3 3621 3Q3582 3 3548 2Q3514 2 3493 0L3493 20Q3527 22 3544 28Q3562 34 3568 52Q3574 70 3574 106L3574 602Q3574 639 3568 656Q3562 674 3544 680Q3527 687 3493 688L3493 708Q3514 707 3548 706Q3582 705 3621 705Q3656 705 3690 706Q3725 707 3748 708ZM3998 529Q4038 529 4066 516Q4094 503 4107 492Q4140 465 4147 528L4170 528Q4168 500 4167 461Q4166 423 4166 358L4143 358Q4137 395 4122 430Q4108 465 4080 487Q4052 510 4007 510Q3972 510 3948 490Q3925 471 3925 433Q3925 403 3943 381Q3961 360 3990 341Q4019 323 4053 301Q4110 264 4150 226Q4190 188 4190 126Q4190 80 4166 49Q4142 18 4103 2Q4065 -14 4019 -14Q3997 -14 3977 -11Q3958 -7 3940 0Q3930 5 3919 12Q3909 19 3899 27Q3889 35 3881 26Q3873 18 3869 -7L3846 -7Q3848 25 3849 71Q3850 117 3850 193L3873 193Q3880 137 3893 95Q3906 53 3934 29Q3962 6 4012 6Q4042 6 4071 27Q4101 48 4101 101Q4101 145 4069 173Q4037 201 3988 232Q3952 255 3920 278Q3889 301 3869 330Q3850 359 3850 400Q3850 445 3870 473Q3891 502 3925 515Q3959 529 3998 529ZM4778 708Q4774 673 4772 640Q4771 607 4771 590Q4771 572 4772 555Q4773 539 4774 528L4751 528Q4745 587 4734 621Q4723 656 4696 670Q4670 685 4617 685L4534 685Q4500 685 4482 679Q4465 674 4459 656Q4453 639 4453 602L4453 106Q4453 70 4459 52Q4465 34 4482 28Q4500 23 4534 23L4607 23Q4670 23 4702 40Q4735 57 4749 95Q4764 134 4771 200L4794 200Q4791 173 4791 128Q4791 109 4792 73Q4794 38 4798 0Q4747 2 4683 2Q4619 3 4569 3Q4539 3 4489 3Q4440 3 4384 2Q4328 2 4279 0L4279 20Q4313 22 4330 28Q4348 34 4354 52Q4360 70 4360 106L4360 602Q4360 639 4354 656Q4348 674 4330 680Q4313 687 4279 688L4279 708Q4328 707 4384 706Q4440 705 4489 705Q4539 705 4569 705Q4615 705 4673 705Q4732 706 4778 708ZM4423 366L4606 366Q4606 366 4606 356Q4606 346 4606 346L4423 346Q4423 346 4423 356Q4423 366 4423 366ZM4612 498L4635 498Q4631 441 4631 411Q4632 381 4632 356Q4632 331 4633 301Q4634 271 4638 214L4615 214Q4611 246 4605 276Q4600 307 4581 326Q4563 346 4519 346L4519 366Q4563 366 4580 389Q4598 412 4603 443Q4608 474 4612 498ZM5211 529Q5249 529 5274 519Q5300 509 5317 491Q5336 471 5344 441Q5352 411 5352 360L5352 93Q5352 51 5369 36Q5387 21 5428 21L5428 0Q5411 1 5376 2Q5341 4 5308 4Q5275 4 5243 2Q5212 1 5196 0L5196 21Q5232 21 5247 36Q5262 51 5262 93L5262 382Q5262 413 5257 439Q5252 465 5234 481Q5217 497 5181 497Q5118 497 5079 444Q5041 392 5041 315L5041 93Q5041 51 5056 36Q5071 21 5107 21L5107 0Q5091 1 5059 2Q5028 4 4995 4Q4962 4 4927 2Q4892 1 4875 0L4875 21Q4916 21 4933 36Q4951 51 4951 93L4951 406Q4951 451 4935 472Q4919 494 4875 494L4875 515Q4907 512 4937 512Q4966 512 4992 515Q5019 519 5041 526L5041 408Q5067 476 5113 502Q5160 529 5211 529ZM5717 529Q5781 529 5832 501Q5883 473 5913 413Q5944 353 5944 257Q5944 161 5913 101Q5883 42 5832 14Q5781 -14 5717 -14Q5654 -14 5602 14Q5551 42 5520 101Q5490 161 5490 257Q5490 353 5520 413Q5551 473 5602 501Q5654 529 5717 529ZM5717 509Q5660 509 5623 450Q5587 391 5587 257Q5587 123 5623 64Q5660 6 5717 6Q5774 6 5810 64Q5847 123 5847 257Q5847 391 5810 450Q5774 509 5717 509ZM6474 526L6474 108Q6474 63 6490 41Q6507 20 6550 20L6550 -1Q6519 2 6488 2Q6459 2 6432 -1Q6406 -4 6384 -12L6384 106Q6359 41 6313 13Q6268 -14 6220 -14Q6185 -14 6159 -4Q6133 6 6116 24Q6097 44 6090 76Q6083 108 6083 155L6083 406Q6083 451 6067 472Q6051 494 6007 494L6007 515Q6039 512 6069 512Q6098 512 6124 515Q6151 519 6173 526L6173 133Q6173 102 6177 76Q6181 50 6197 34Q6213 18 6249 18Q6308 18 6346 70Q6384 123 6384 199L6384 406Q6384 451 6368 472Q6352 494 6308 494L6308 515Q6340 512 6370 512Q6399 512 6425 515Q6452 519 6474 526ZM6785 -188Q6732 -188 6685 -177Q6638 -166 6609 -143Q6581 -119 6581 -83Q6581 -48 6609 -23Q6637 2 6685 15L6691 -1Q6669 -8 6656 -29Q6643 -50 6643 -76Q6643 -122 6685 -147Q6728 -171 6796 -171Q6841 -171 6884 -160Q6927 -148 6955 -121Q6983 -94 6983 -50Q6983 -17 6959 4Q6936 26 6867 26L6793 26Q6761 26 6731 31Q6701 36 6682 52Q6663 68 6663 101Q6663 135 6691 166Q6719 198 6794 231L6806 222Q6772 204 6747 185Q6722 167 6722 142Q6722 110 6770 110L6895 110Q6957 110 7004 82Q7052 55 7052 -8Q7052 -55 7022 -96Q6992 -137 6932 -163Q6873 -188 6785 -188ZM6790 213Q6716 213 6665 251Q6615 289 6615 371Q6615 454 6665 491Q6716 529 6790 529Q6864 529 6914 491Q6965 454 6965 371Q6965 289 6914 251Q6864 213 6790 213ZM6790 231Q6828 231 6849 261Q6871 291 6871 371Q6871 451 6849 481Q6828 511 6790 511Q6753 511 6731 481Q6709 451 6709 371Q6709 291 6731 261Q6753 231 6790 231ZM6934 446L6916 453Q6930 487 6964 513Q6998 539 7035 539Q7061 539 7077 524Q7093 510 7093 481Q7093 450 7076 437Q7060 425 7043 425Q7028 425 7015 435Q7002 446 7000 469Q6998 492 7014 528L7027 525Q6985 509 6967 491Q6949 474 6934 446ZM7286 783L7286 409Q7312 477 7358 503Q7405 529 7456 529Q7494 529 7519 519Q7545 509 7562 491Q7581 471 7589 441Q7597 411 7597 360L7597 93Q7597 51 7614 36Q7632 21 7673 21L7673 0Q7656 1 7621 2Q7586 4 7553 4Q7520 4 7488 2Q7457 1 7441 0L7441 21Q7477 21 7492 36Q7507 51 7507 93L7507 382Q7507 413 7502 439Q7497 465 7479 481Q7462 497 7426 497Q7365 497 7325 446Q7286 396 7286 316L7286 93Q7286 51 7301 36Q7316 21 7352 21L7352 0Q7336 1 7304 2Q7273 4 7240 4Q7207 4 7172 2Q7137 1 7120 0L7120 21Q7161 21 7178 36Q7196 51 7196 93L7196 663Q7196 708 7180 729Q7164 751 7120 751L7120 772Q7152 769 7182 769Q7211 769 7237 772Q7264 776 7286 783Z" fill="#0560af" style=""></path></g></g></g></svg>